<svg version="1.1" id="Layer_1" xmlns="http://www.w3.org/2000/svg" xmlns:xlink="http://www.w3.org/1999/xlink" x="0px" y="0px"
	 width="100%" viewBox="0 0 475 106" enable-background="new 0 0 475 106" xml:space="preserve">
<path fill="#FCFDFE" opacity="1.000000" stroke="none" 
	d="
M474.000000,1.000000 
	C477.078491,0.387808 475.960510,2.725478 475.965790,3.995190 
	C476.021240,17.315088 476.000000,30.635305 476.000000,43.955433 
	C476.000000,64.934631 476.000000,85.913834 476.000000,107.000000 
	C364.979126,107.000000 253.958221,107.000000 142.631424,106.659897 
	C146.000397,105.282471 149.711319,104.352615 153.327438,103.140121 
	C154.366745,102.791634 155.775192,101.732941 155.924713,100.821175 
	C157.468719,91.406197 158.789139,81.954544 160.068405,73.219116 
	C153.683517,76.211655 147.340454,79.184570 140.579636,82.085434 
	C138.185287,81.776756 136.199081,81.601547 134.233719,81.293434 
	C122.636116,79.475288 116.161957,72.747169 115.526749,60.954594 
	C114.544670,42.722588 128.424774,23.860035 150.343262,26.636803 
	C155.745987,29.487154 160.843430,32.200237 165.805847,34.841457 
	C167.119568,25.989281 168.590057,16.080746 170.092499,5.956968 
	C165.496567,4.216895 161.248276,2.608448 157.000000,1.000000 
	C206.354233,1.000000 255.708450,1.000000 305.328186,1.292830 
	C300.208801,2.415024 296.983215,5.903173 295.350830,10.714648 
	C293.822174,15.220519 294.203003,19.757626 298.191437,23.046587 
	C301.823517,26.041662 306.035400,25.772919 309.933807,23.715754 
	C314.912140,21.088701 317.266968,16.647104 317.365784,11.021295 
	C317.457367,5.808259 314.440796,2.881016 310.000000,1.000000 
	C318.354218,1.000000 326.708466,1.000000 335.679504,1.415880 
	C335.234833,9.302030 334.173279,16.772299 333.111755,24.242569 
	C333.745941,24.471230 334.380157,24.699890 335.014343,24.928551 
	C340.898651,22.050360 337.078339,14.630692 340.391418,10.157042 
	C343.051300,14.501010 345.559296,18.774452 348.281281,22.906927 
	C348.897125,23.841894 350.256927,24.286871 351.274261,24.957397 
	C351.876556,23.947779 352.835052,22.999233 353.020416,21.918118 
	C353.889496,16.850044 354.638916,11.756245 355.228912,6.648281 
	C355.442505,4.799004 355.092743,2.884657 355.000000,1.000000 
	C361.354401,1.000000 367.708801,1.000000 374.412292,1.375096 
	C373.517914,9.199966 372.274475,16.649740 371.031097,24.099112 
	C380.371918,25.510429 381.592743,25.137753 381.808807,20.930248 
	C380.241089,20.709063 378.659119,20.485867 376.625153,20.198904 
	C376.983765,17.178219 377.424652,14.428892 377.609955,11.662447 
	C377.847534,8.115502 377.879486,4.554785 378.000000,1.000000 
	C385.687592,1.000000 393.375153,1.000000 401.490936,1.407374 
	C400.838104,9.249084 399.757111,16.683422 398.676086,24.117758 
	C399.227448,24.448879 399.778778,24.780001 400.330139,25.111122 
	C401.315247,23.999636 402.920288,23.015081 403.178375,21.754721 
	C404.303253,16.261030 405.132050,10.699336 405.842072,5.133468 
	C406.010529,3.812943 405.304016,2.380799 405.000000,1.000000 
	C411.354401,1.000000 417.708801,1.000000 424.483643,1.402077 
	C423.749237,9.232298 422.594421,16.660442 421.430267,24.148737 
	C427.586884,25.579485 426.017670,21.039465 426.695068,18.801186 
	C427.507690,16.116013 427.641174,13.225300 428.245422,9.266108 
	C431.379364,14.434843 433.754089,18.575327 436.386749,22.544743 
	C437.094666,23.612082 438.587158,24.159077 439.719482,24.944927 
	C440.355621,23.748968 441.342896,22.614893 441.566467,21.346224 
	C442.486176,16.127739 443.288818,10.881121 443.873199,5.615848 
	C444.038361,4.127866 443.315552,2.541334 443.000000,1.000000 
	C449.687653,1.000000 456.375275,1.000000 463.377167,1.342666 
	C462.202728,9.130009 460.714081,16.574686 459.225403,24.019361 
	C459.716339,24.372272 460.207306,24.725183 460.698242,25.078093 
	C464.094055,23.066456 469.149506,27.106258 472.699799,21.086115 
	C469.434814,20.758179 467.362610,20.550047 464.908447,20.303549 
	C465.070557,18.365177 465.214722,16.641489 465.348969,15.036219 
	C472.401123,14.053295 472.401123,14.053295 472.564087,10.842363 
	C470.648834,10.619640 468.729095,10.396397 466.747986,10.166014 
	C465.487762,3.135592 471.625183,6.816471 474.000000,4.697233 
	C474.000000,3.615870 474.000000,2.307935 474.000000,1.000000 
M343.695587,102.077934 
	C348.360168,102.083031 353.032013,101.932373 357.686707,102.149643 
	C360.641083,102.287552 361.716339,101.262871 362.077789,98.303246 
	C363.166473,89.388954 364.285339,80.455826 366.016479,71.652771 
	C366.789581,67.721748 368.267242,63.335354 370.905151,60.564743 
	C372.800781,58.573788 377.325256,58.005318 380.332245,58.586468 
	C381.955170,58.900124 383.440338,62.849834 383.919312,65.362732 
	C384.430603,68.045494 383.844360,70.990562 383.455933,73.781982 
	C382.161072,83.086586 380.740112,92.373634 379.331543,101.910889 
	C386.149200,101.910889 392.435608,101.910889 399.139557,101.910889 
	C400.439941,93.452507 401.860809,85.122414 402.964142,76.750465 
	C403.875275,69.836548 404.990662,62.871609 404.972290,55.932045 
	C404.946991,46.382725 399.335480,41.316971 389.828430,41.087528 
	C380.862396,40.871147 373.922180,44.874229 368.458496,51.779579 
	C358.698608,38.234264 350.630402,37.584240 331.988159,48.764259 
	C331.988159,46.907696 331.988159,45.159615 331.988159,42.946583 
	C326.210663,42.946583 320.565338,42.756302 314.955139,43.115368 
	C313.898254,43.183010 312.326324,45.332993 312.103577,46.702839 
	C310.315826,57.697594 308.799896,68.736465 307.190613,79.760368 
	C306.123291,87.071480 305.039185,94.380142 303.948059,101.788673 
	C310.972137,101.788673 317.392975,101.788673 323.790985,101.788673 
	C324.253510,98.524231 324.605774,95.549332 325.105835,92.599495 
	C326.660034,83.431015 327.847137,74.170776 330.006714,65.144737 
	C331.461273,59.065281 336.403015,56.196915 341.000793,57.311962 
	C345.093597,58.304527 346.929565,61.792488 346.212280,68.330574 
	C345.451019,75.269730 344.154266,82.149681 343.371918,89.087120 
	C342.890137,93.358902 342.933502,97.689896 343.695587,102.077934 
M177.242035,7.842019 
	C172.571747,39.088074 167.901474,70.334129 163.192261,101.840584 
	C169.705460,101.840584 176.134933,101.840584 182.890182,101.840584 
	C183.287979,99.733963 183.743073,97.655708 184.065750,95.557091 
	C185.380020,87.009117 186.369690,78.397301 188.086441,69.932213 
	C188.745270,66.683601 190.564285,63.384720 192.686890,60.789417 
	C195.462082,57.396233 199.728012,56.840759 203.675919,58.444424 
	C207.755630,60.101635 207.850357,64.166039 207.678482,67.851326 
	C207.531891,70.994293 206.857269,74.113358 206.403244,77.241112 
	C205.221634,85.381210 204.032913,93.520264 202.848190,101.651642 
	C209.843262,101.651642 216.223206,101.651642 222.506332,101.651642 
	C223.252304,96.941162 224.051682,92.689087 224.579254,88.403549 
	C225.837219,78.184883 227.625549,67.972015 227.961716,57.716225 
	C228.292999,47.609558 221.774399,41.718071 211.870087,41.093712 
	C203.642792,40.575062 197.154556,44.121292 190.849411,50.281044 
	C193.094513,35.111187 195.196457,20.908619 197.422211,5.869457 
	C190.286774,6.280152 183.916397,6.646811 177.242035,7.842019 
M235.867859,64.556229 
	C234.996124,68.430611 233.711349,72.264992 233.331543,76.187019 
	C232.271988,87.128120 238.069763,96.824448 247.859741,101.211777 
	C268.711853,110.556557 294.558533,98.349350 300.507874,76.346413 
	C305.169952,59.104317 296.714325,45.349510 279.288025,41.762653 
	C264.511078,38.721115 243.926544,45.287983 235.867859,64.556229 
M472.210510,67.518036 
	C471.963989,49.788658 462.831757,40.847645 445.195282,41.068417 
	C425.240997,41.318203 410.228638,56.770554 409.861176,77.438019 
	C409.598969,92.185791 417.048706,101.458534 431.582336,103.770798 
	C440.718536,105.224350 449.537506,103.695976 457.426666,98.621292 
	C462.787170,95.173164 467.043945,90.681717 469.119293,84.081474 
	C467.524811,83.999855 466.381378,83.854401 465.245117,83.897400 
	C458.338837,84.158768 451.409821,82.650803 445.050262,87.882332 
	C441.476959,90.821838 435.963165,90.138542 432.118622,86.641495 
	C429.081421,83.878853 428.428467,80.180603 430.118896,75.805710 
	C443.940857,75.805710 457.675598,75.805710 471.683899,75.805710 
	C471.879547,73.062134 472.043274,70.766403 472.210510,67.518036 
z"/>
<path fill="#0248AE" opacity="1.000000" stroke="none" 
	d="
M59.000000,1.000000 
	C61.041668,1.000000 63.083332,1.000000 65.714394,1.349137 
	C76.641899,3.784840 85.580231,8.023010 88.173645,19.276117 
	C89.411957,24.649317 89.699310,30.535896 88.996666,36.007492 
	C86.813744,53.006092 78.573296,68.861549 55.385208,71.223358 
	C48.311050,71.943893 41.167267,71.980888 33.268604,72.369644 
	C31.859158,83.804214 30.429579,95.402107 29.000000,107.000000 
	C20.645767,107.000000 12.291536,107.000000 3.298412,106.585800 
	C5.629106,86.092125 8.624865,66.016464 11.559657,45.931896 
	C13.747294,30.960567 15.856091,15.977718 18.000000,1.000000 
	C18.444445,1.000000 18.888889,1.000000 19.953424,1.304840 
	C32.825336,1.719326 45.077099,1.841442 57.329163,1.898190 
	C57.884708,1.900763 58.442993,1.312872 59.000000,1.000000 
M39.751518,30.164907 
	C38.822662,36.520782 37.893803,42.876659 36.832249,50.140545 
	C42.120991,49.716103 46.903580,49.705128 51.540672,48.878231 
	C59.788601,47.407436 65.269669,34.998299 60.810089,27.876629 
	C59.716282,26.129883 57.362236,24.510048 55.345997,24.136766 
	C50.704441,23.277447 45.914429,23.220028 40.889034,22.813282 
	C40.493793,25.425940 40.200497,27.364716 39.751518,30.164907 
z"/>
<path fill="#FDFDFE" opacity="1.000000" stroke="none" 
	d="
M29.468658,107.000000 
	C30.429579,95.402107 31.859158,83.804214 33.268604,72.369644 
	C41.167267,71.980888 48.311050,71.943893 55.385208,71.223358 
	C78.573296,68.861549 86.813744,53.006092 88.996666,36.007492 
	C89.699310,30.535896 89.411957,24.649317 88.173645,19.276117 
	C85.580231,8.023010 76.641899,3.784840 66.151894,1.349137 
	C90.020897,1.000000 114.041786,1.000000 138.430359,1.360087 
	C138.038269,2.047671 137.304474,2.467819 136.514954,2.689228 
	C110.911751,9.869317 96.034439,27.115810 90.404114,52.585312 
	C84.914413,77.418709 97.076523,97.826591 121.229759,105.306335 
	C122.231903,105.616669 123.080093,106.424133 124.000000,107.000000 
	C92.645775,107.000000 61.291542,107.000000 29.468658,107.000000 
z"/>
<path fill="#0248AF" opacity="1.000000" stroke="none" 
	d="
M124.464645,107.000000 
	C123.080093,106.424133 122.231903,105.616669 121.229759,105.306335 
	C97.076523,97.826591 84.914413,77.418709 90.404114,52.585312 
	C96.034439,27.115810 110.911751,9.869317 136.514954,2.689228 
	C137.304474,2.467819 138.038269,2.047671 138.899017,1.360087 
	C143.689255,1.000000 148.378510,1.000000 153.505707,1.417024 
	C152.641769,10.055878 151.339859,18.277708 150.037964,26.499538 
	C128.424774,23.860035 114.544670,42.722588 115.526749,60.954594 
	C116.161957,72.747169 122.636116,79.475288 134.233719,81.293434 
	C136.199081,81.601547 138.185287,81.776756 140.585419,82.524750 
	C140.005997,91.024078 139.003006,99.012039 138.000000,107.000000 
	C133.643097,107.000000 129.286194,107.000000 124.464645,107.000000 
z"/>
<path fill="#FBFCFE" opacity="1.000000" stroke="none" 
	d="
M17.529547,1.000000 
	C15.856091,15.977718 13.747294,30.960567 11.559657,45.931896 
	C8.624865,66.016464 5.629106,86.092125 2.829759,106.585800 
	C-0.061117,107.611679 1.039010,105.287102 1.033702,104.017570 
	C0.978855,90.897758 1.000000,77.777626 1.000000,64.657585 
	C1.000000,43.438328 1.000000,22.219070 1.000000,1.000000 
	C6.430211,1.000000 11.744653,1.000000 17.529547,1.000000 
z"/>
<path fill="#0591EB" opacity="1.000000" stroke="none" 
	d="
M138.399994,107.000000 
	C139.003006,99.012039 140.005997,91.024078 141.003204,82.596802 
	C147.340454,79.184570 153.683517,76.211655 160.068405,73.219116 
	C158.789139,81.954544 157.468719,91.406197 155.924713,100.821175 
	C155.775192,101.732941 154.366745,102.791634 153.327438,103.140121 
	C149.711319,104.352615 146.000397,105.282471 142.162766,106.659897 
	C140.933334,107.000000 139.866653,107.000000 138.399994,107.000000 
z"/>
<path fill="#0591EB" opacity="1.000000" stroke="none" 
	d="
M150.343262,26.636803 
	C151.339859,18.277708 152.641769,10.055878 153.971832,1.417024 
	C154.750000,1.000000 155.500000,1.000000 156.625000,1.000000 
	C161.248276,2.608448 165.496567,4.216895 170.092499,5.956968 
	C168.590057,16.080746 167.119568,25.989281 165.805847,34.841457 
	C160.843430,32.200237 155.745987,29.487154 150.343262,26.636803 
z"/>
<path fill="#707070" opacity="1.000000" stroke="none" 
	d="
M354.666687,1.000000 
	C355.092743,2.884657 355.442505,4.799004 355.228912,6.648281 
	C354.638916,11.756245 353.889496,16.850044 353.020416,21.918118 
	C352.835052,22.999233 351.876556,23.947779 351.274261,24.957397 
	C350.256927,24.286871 348.897125,23.841894 348.281281,22.906927 
	C345.559296,18.774452 343.051300,14.501010 340.391418,10.157042 
	C337.078339,14.630692 340.898651,22.050360 335.014343,24.928551 
	C334.380157,24.699890 333.745941,24.471230 333.111755,24.242569 
	C334.173279,16.772299 335.234833,9.302030 336.148193,1.415880 
	C337.066681,1.000000 338.133331,1.000000 339.604492,1.354619 
	C342.947693,6.601593 345.886414,11.493948 348.921387,16.546591 
	C350.385681,10.965036 351.692841,5.982516 353.000000,0.999998 
	C353.444458,1.000000 353.888885,1.000000 354.666687,1.000000 
z"/>
<path fill="#6F6F6F" opacity="1.000000" stroke="none" 
	d="
M442.625000,1.000000 
	C443.315552,2.541334 444.038361,4.127866 443.873199,5.615848 
	C443.288818,10.881121 442.486176,16.127739 441.566467,21.346224 
	C441.342896,22.614893 440.355621,23.748968 439.719482,24.944927 
	C438.587158,24.159077 437.094666,23.612082 436.386749,22.544743 
	C433.754089,18.575327 431.379364,14.434843 428.245422,9.266108 
	C427.641174,13.225300 427.507690,16.116013 426.695068,18.801186 
	C426.017670,21.039465 427.586884,25.579485 421.430267,24.148737 
	C422.594421,16.660442 423.749237,9.232298 424.952026,1.402077 
	C425.750000,1.000000 426.500000,1.000000 427.731812,1.327480 
	C431.235229,6.567366 434.256836,11.479771 437.901001,17.404354 
	C438.712219,11.064498 439.356110,6.032250 440.000000,1.000001 
	C440.750000,1.000000 441.500000,1.000000 442.625000,1.000000 
z"/>
<path fill="#6E6E6E" opacity="1.000000" stroke="none" 
	d="
M309.600006,1.000000 
	C314.440796,2.881016 317.457367,5.808259 317.365784,11.021295 
	C317.266968,16.647104 314.912140,21.088701 309.933807,23.715754 
	C306.035400,25.772919 301.823517,26.041662 298.191437,23.046587 
	C294.203003,19.757626 293.822174,15.220519 295.350830,10.714648 
	C296.983215,5.903173 300.208801,2.415024 305.796814,1.292830 
	C307.066681,1.000000 308.133331,1.000000 309.600006,1.000000 
M310.701324,6.901232 
	C309.982056,6.511236 309.304718,5.938170 308.536438,5.762307 
	C304.816833,4.910845 300.721954,7.635093 299.651550,11.816644 
	C298.680298,15.611021 299.693756,19.058861 303.484833,20.432411 
	C307.553253,21.906437 310.403320,18.967810 311.567413,15.707428 
	C312.427124,13.299596 311.407593,10.220782 310.701324,6.901232 
z"/>
<path fill="#6F6F6F" opacity="1.000000" stroke="none" 
	d="
M473.545898,1.000000 
	C474.000000,2.307935 474.000000,3.615870 474.000000,4.697233 
	C471.625183,6.816471 465.487762,3.135592 466.747986,10.166014 
	C468.729095,10.396397 470.648834,10.619640 472.564087,10.842363 
	C472.401123,14.053295 472.401123,14.053295 465.348969,15.036219 
	C465.214722,16.641489 465.070557,18.365177 464.908447,20.303549 
	C467.362610,20.550047 469.434814,20.758179 472.699799,21.086115 
	C469.149506,27.106258 464.094055,23.066456 460.698242,25.078093 
	C460.207306,24.725183 459.716339,24.372272 459.225403,24.019361 
	C460.714081,16.574686 462.202728,9.130009 463.845703,1.342666 
	C467.030609,1.000000 470.061188,1.000000 473.545898,1.000000 
z"/>
<path fill="#737373" opacity="1.000000" stroke="none" 
	d="
M377.625000,1.000000 
	C377.879486,4.554785 377.847534,8.115502 377.609955,11.662447 
	C377.424652,14.428892 376.983765,17.178219 376.625153,20.198904 
	C378.659119,20.485867 380.241089,20.709063 381.808807,20.930248 
	C381.592743,25.137753 380.371918,25.510429 371.031097,24.099112 
	C372.274475,16.649740 373.517914,9.199966 374.880676,1.375096 
	C375.750000,1.000000 376.500000,1.000000 377.625000,1.000000 
z"/>
<path fill="#707070" opacity="1.000000" stroke="none" 
	d="
M404.625000,1.000000 
	C405.304016,2.380799 406.010529,3.812943 405.842072,5.133468 
	C405.132050,10.699336 404.303253,16.261030 403.178375,21.754721 
	C402.920288,23.015081 401.315247,23.999636 400.330139,25.111122 
	C399.778778,24.780001 399.227448,24.448879 398.676086,24.117758 
	C399.757111,16.683422 400.838104,9.249084 401.959564,1.407374 
	C402.750000,1.000000 403.500000,1.000000 404.625000,1.000000 
z"/>
<path fill="#F8F8F8" opacity="1.000000" stroke="none" 
	d="
M352.536804,0.999998 
	C351.692841,5.982516 350.385681,10.965036 348.921387,16.546591 
	C345.886414,11.493948 342.947693,6.601593 340.004486,1.354619 
	C344.024536,1.000000 348.049103,1.000000 352.536804,0.999998 
z"/>
<path fill="#F9F9F9" opacity="1.000000" stroke="none" 
	d="
M439.539368,1.000001 
	C439.356110,6.032250 438.712219,11.064498 437.901001,17.404354 
	C434.256836,11.479771 431.235229,6.567366 428.106812,1.327480 
	C431.692902,1.000000 435.385834,1.000000 439.539368,1.000001 
z"/>
<path fill="#3165BB" opacity="1.000000" stroke="none" 
	d="
M58.531342,1.000000 
	C58.442993,1.312872 57.884708,1.900763 57.329163,1.898190 
	C45.077099,1.841442 32.825336,1.719326 20.286758,1.304840 
	C32.687561,1.000000 45.375122,1.000000 58.531342,1.000000 
z"/>
<path fill="#0491EB" opacity="1.000000" stroke="none" 
	d="
M343.218323,102.036118 
	C342.933502,97.689896 342.890137,93.358902 343.371918,89.087120 
	C344.154266,82.149681 345.451019,75.269730 346.212280,68.330574 
	C346.929565,61.792488 345.093597,58.304527 341.000793,57.311962 
	C336.403015,56.196915 331.461273,59.065281 330.006714,65.144737 
	C327.847137,74.170776 326.660034,83.431015 325.105835,92.599495 
	C324.605774,95.549332 324.253510,98.524231 323.790985,101.788673 
	C317.392975,101.788673 310.972137,101.788673 303.948059,101.788673 
	C305.039185,94.380142 306.123291,87.071480 307.190613,79.760368 
	C308.799896,68.736465 310.315826,57.697594 312.103577,46.702839 
	C312.326324,45.332993 313.898254,43.183010 314.955139,43.115368 
	C320.565338,42.756302 326.210663,42.946583 331.988159,42.946583 
	C331.988159,45.159615 331.988159,46.907696 331.988159,48.764259 
	C350.630402,37.584240 358.698608,38.234264 368.458496,51.779579 
	C373.922180,44.874229 380.862396,40.871147 389.828430,41.087528 
	C399.335480,41.316971 404.946991,46.382725 404.972290,55.932045 
	C404.990662,62.871609 403.875275,69.836548 402.964142,76.750465 
	C401.860809,85.122414 400.439941,93.452507 399.139557,101.910889 
	C392.435608,101.910889 386.149200,101.910889 379.331543,101.910889 
	C380.740112,92.373634 382.161072,83.086586 383.455933,73.781982 
	C383.844360,70.990562 384.430603,68.045494 383.919312,65.362732 
	C383.440338,62.849834 381.955170,58.900124 380.332245,58.586468 
	C377.325256,58.005318 372.800781,58.573788 370.905151,60.564743 
	C368.267242,63.335354 366.789581,67.721748 366.016479,71.652771 
	C364.285339,80.455826 363.166473,89.388954 362.077789,98.303246 
	C361.716339,101.262871 360.641083,102.287552 357.686707,102.149643 
	C353.032013,101.932373 348.360168,102.083031 343.218323,102.036118 
z"/>
<path fill="#0491EB" opacity="1.000000" stroke="none" 
	d="
M177.394043,7.427745 
	C183.916397,6.646811 190.286774,6.280152 197.422211,5.869457 
	C195.196457,20.908619 193.094513,35.111187 190.849411,50.281044 
	C197.154556,44.121292 203.642792,40.575062 211.870087,41.093712 
	C221.774399,41.718071 228.292999,47.609558 227.961716,57.716225 
	C227.625549,67.972015 225.837219,78.184883 224.579254,88.403549 
	C224.051682,92.689087 223.252304,96.941162 222.506332,101.651642 
	C216.223206,101.651642 209.843262,101.651642 202.848190,101.651642 
	C204.032913,93.520264 205.221634,85.381210 206.403244,77.241112 
	C206.857269,74.113358 207.531891,70.994293 207.678482,67.851326 
	C207.850357,64.166039 207.755630,60.101635 203.675919,58.444424 
	C199.728012,56.840759 195.462082,57.396233 192.686890,60.789417 
	C190.564285,63.384720 188.745270,66.683601 188.086441,69.932213 
	C186.369690,78.397301 185.380020,87.009117 184.065750,95.557091 
	C183.743073,97.655708 183.287979,99.733963 182.890182,101.840584 
	C176.134933,101.840584 169.705460,101.840584 163.192261,101.840584 
	C167.901474,70.334129 172.571747,39.088074 177.394043,7.427745 
z"/>
<path fill="#0391EB" opacity="1.000000" stroke="none" 
	d="
M235.978836,64.184883 
	C243.926544,45.287983 264.511078,38.721115 279.288025,41.762653 
	C296.714325,45.349510 305.169952,59.104317 300.507874,76.346413 
	C294.558533,98.349350 268.711853,110.556557 247.859741,101.211777 
	C238.069763,96.824448 232.271988,87.128120 233.331543,76.187019 
	C233.711349,72.264992 234.996124,68.430611 235.978836,64.184883 
M279.162354,64.563843 
	C276.104980,59.653831 271.640015,58.420185 266.267792,59.699398 
	C259.860077,61.225170 255.668671,66.005089 254.538864,72.975227 
	C253.290070,80.679504 258.360474,86.418289 266.125305,86.088989 
	C276.296539,85.657623 282.308105,76.297523 279.162354,64.563843 
z"/>
<path fill="#0491EB" opacity="1.000000" stroke="none" 
	d="
M472.208740,67.994354 
	C472.043274,70.766403 471.879547,73.062134 471.683899,75.805710 
	C457.675598,75.805710 443.940857,75.805710 430.118896,75.805710 
	C428.428467,80.180603 429.081421,83.878853 432.118622,86.641495 
	C435.963165,90.138542 441.476959,90.821838 445.050262,87.882332 
	C451.409821,82.650803 458.338837,84.158768 465.245117,83.897400 
	C466.381378,83.854401 467.524811,83.999855 469.119293,84.081474 
	C467.043945,90.681717 462.787170,95.173164 457.426666,98.621292 
	C449.537506,103.695976 440.718536,105.224350 431.582336,103.770798 
	C417.048706,101.458534 409.598969,92.185791 409.861176,77.438019 
	C410.228638,56.770554 425.240997,41.318203 445.195282,41.068417 
	C462.831757,40.847645 471.963989,49.788658 472.208740,67.994354 
M439.632294,64.246071 
	C444.655426,64.246071 449.678558,64.246071 454.847565,64.246071 
	C453.562805,57.727669 451.085114,55.277653 446.081146,54.877266 
	C439.423553,54.344574 434.749817,57.362904 432.234070,64.246246 
	C434.513031,64.246246 436.597748,64.246246 439.632294,64.246071 
z"/>
<path fill="#F9FAFD" opacity="1.000000" stroke="none" 
	d="
M39.829361,29.734200 
	C40.200497,27.364716 40.493793,25.425940 40.889034,22.813282 
	C45.914429,23.220028 50.704441,23.277447 55.345997,24.136766 
	C57.362236,24.510048 59.716282,26.129883 60.810089,27.876629 
	C65.269669,34.998299 59.788601,47.407436 51.540672,48.878231 
	C46.903580,49.705128 42.120991,49.716103 36.832249,50.140545 
	C37.893803,42.876659 38.822662,36.520782 39.829361,29.734200 
z"/>
<path fill="#F9F9F9" opacity="1.000000" stroke="none" 
	d="
M310.963318,7.171073 
	C311.407593,10.220782 312.427124,13.299596 311.567413,15.707428 
	C310.403320,18.967810 307.553253,21.906437 303.484833,20.432411 
	C299.693756,19.058861 298.680298,15.611021 299.651550,11.816644 
	C300.721954,7.635093 304.816833,4.910845 308.536438,5.762307 
	C309.304718,5.938170 309.982056,6.511236 310.963318,7.171073 
z"/>
<path fill="#F9FCFE" opacity="1.000000" stroke="none" 
	d="
M279.339569,64.901031 
	C282.308105,76.297523 276.296539,85.657623 266.125305,86.088989 
	C258.360474,86.418289 253.290070,80.679504 254.538864,72.975227 
	C255.668671,66.005089 259.860077,61.225170 266.267792,59.699398 
	C271.640015,58.420185 276.104980,59.653831 279.339569,64.901031 
z"/>
<path fill="#F7FBFE" opacity="1.000000" stroke="none" 
	d="
M439.157379,64.246155 
	C436.597748,64.246246 434.513031,64.246246 432.234070,64.246246 
	C434.749817,57.362904 439.423553,54.344574 446.081146,54.877266 
	C451.085114,55.277653 453.562805,57.727669 454.847565,64.246071 
	C449.678558,64.246071 444.655426,64.246071 439.157379,64.246155 
z"/>
</svg>